<?xml version="1.0" standalone="no"?>
<!DOCTYPE svg PUBLIC "-//W3C//DTD SVG 20010904//EN"
 "http://www.w3.org/TR/2001/REC-SVG-20010904/DTD/svg10.dtd">
<svg version="1.0" xmlns="http://www.w3.org/2000/svg"
 width="701.000000pt" height="701.000000pt" viewBox="0 0 701.000000 701.000000"
 preserveAspectRatio="xMidYMid meet">

<g transform="translate(0.000000,701.000000) scale(0.100000,-0.100000)"
fill="#000000" stroke="none">
<path d="M1032 5977 l-1022 -1022 0 -1455 0 -1455 1023 -1023 1022 -1022 1450
0 1450 0 1023 1023 1022 1022 0 1455 0 1455 -1023 1023 -1022 1022 -1450 0
-1450 0 -1023 -1023z m4740 -204 l938 -938 0 -1335 0 -1335 -937 -937 -938
-938 -1330 0 -1330 0 -937 937 -938 938 0 1335 0 1335 937 937 938 938 1330 0
1330 0 937 -937z"/>
<path d="M1337 5662 l-897 -897 0 -1265 0 -1265 898 -898 897 -897 1270 0
1270 0 898 898 897 897 0 1265 0 1265 -898 898 -897 897 -1270 0 -1270 0 -898
-898z m1675 -507 c413 -666 752 -1214 754 -1220 2 -5 -20 -23 -48 -39 -104
-58 -205 -120 -346 -214 -121 -79 -146 -92 -157 -81 -7 8 -337 525 -734 1149
l-721 1134 242 243 c134 134 247 242 252 240 4 -1 346 -547 758 -1212z m1958
1010 l204 -204 -574 -954 -574 -954 -63 -32 -63 -31 -23 38 c-111 175 -287
461 -287 465 0 4 1070 1736 1146 1855 8 12 18 22 22 22 4 0 99 -92 212 -205z
m496 -496 l182 -182 -64 -73 c-246 -282 -422 -627 -504 -987 -19 -82 -26 -98
-44 -102 -11 -2 -80 -13 -151 -25 -156 -24 -291 -56 -478 -112 -76 -22 -141
-38 -144 -34 -4 4 -3 15 3 24 6 9 235 389 508 845 274 455 501 827 504 827 4
0 89 -82 188 -181z m-3519 -339 c148 -234 272 -433 276 -443 6 -15 -3 -13 -45
13 -103 61 -315 159 -420 194 -60 20 -164 47 -232 61 -125 25 -385 49 -425 38
-11 -3 -21 -1 -21 3 0 5 129 138 287 296 221 221 290 285 299 275 6 -6 132
-203 281 -437z m3996 -138 l189 -189 -67 -99 c-82 -121 -183 -326 -225 -455
l-32 -96 -266 0 c-147 0 -282 -3 -301 -7 l-33 -8 7 43 c13 80 75 268 128 392
58 135 134 270 223 394 62 86 171 213 182 213 4 0 92 -85 195 -188z m-4437
-176 c357 -76 675 -247 923 -496 80 -80 115 -132 384 -555 l297 -466 -37 -32
c-21 -18 -77 -67 -125 -109 l-86 -78 -60 123 c-307 629 -911 1059 -1612 1146
-153 20 -460 12 -582 -15 l-28 -6 0 89 0 88 168 167 c125 125 175 168 197 171
17 3 122 4 235 2 174 -3 223 -7 326 -29z m4924 -538 c0 -143 -4 -228 -10 -228
-5 0 -76 13 -157 29 -82 17 -185 35 -230 41 l-81 12 15 52 c40 136 126 313
216 444 l50 73 99 -98 98 -98 0 -227z m-5239 -73 c655 -87 1208 -488 1488
-1077 33 -68 61 -132 64 -143 5 -15 -13 -40 -71 -102 l-77 -82 -75 9 c-41 5
-146 9 -232 10 l-157 0 -43 82 c-259 498 -847 797 -1402 713 -55 -8 -101 -15
-103 -15 -1 0 -3 132 -3 294 l0 294 83 11 c45 6 93 12 107 14 64 10 326 5 421
-8z m4779 -219 c139 -20 255 -41 373 -68 l87 -20 0 -345 c0 -317 -1 -345 -17
-339 -36 14 -193 56 -285 75 -733 157 -1490 34 -2144 -350 -166 -97 -381 -256
-495 -366 l-45 -44 -125 60 c-124 61 -373 149 -481 171 -34 6 -58 17 -58 24 0
16 261 272 370 362 166 138 429 312 675 447 383 210 830 346 1316 402 166 19
667 13 829 -9z m-4860 -522 c354 -72 644 -276 833 -586 20 -34 37 -65 37 -69
0 -4 -33 -13 -72 -19 -97 -17 -288 -64 -363 -90 l-60 -21 -24 33 c-47 64 -168
173 -232 211 -179 105 -435 126 -615 51 l-34 -14 0 244 0 245 40 11 c116 31
345 33 490 4z m4720 -270 c156 -18 323 -51 483 -97 l112 -32 3 -397 c1 -219 1
-398 -1 -398 -2 0 -53 19 -113 41 -382 145 -803 177 -1206 94 -311 -64 -634
-214 -888 -413 l-65 -51 -49 57 c-116 134 -308 304 -454 400 l-84 57 53 48
c71 64 256 203 344 259 371 236 813 392 1242 437 138 15 478 12 623 -5z
m-4799 -338 c89 -28 172 -78 241 -145 37 -37 68 -71 68 -77 0 -5 -41 -30 -92
-54 -197 -96 -401 -233 -568 -383 -47 -42 -88 -77 -93 -77 -4 0 -6 154 -5 343
l3 342 49 23 c78 38 160 52 261 47 50 -2 111 -11 136 -19z m1599 -201 c636
-99 1202 -459 1555 -990 234 -351 356 -725 381 -1162 l7 -123 -180 0 -180 0
-7 113 c-30 485 -211 903 -541 1246 -297 308 -684 506 -1108 566 -131 19 -403
19 -534 0 -393 -56 -770 -238 -1048 -506 l-50 -49 -124 124 c-112 112 -123
126 -110 142 7 9 63 59 124 112 366 314 811 501 1305 546 92 8 409 -4 510 -19z
m3135 -355 c139 -16 289 -48 415 -90 128 -43 250 -95 250 -107 0 -5 -132 -139
-292 -300 l-293 -291 -90 20 c-132 29 -345 28 -485 -1 -235 -50 -468 -176
-625 -340 -21 -22 -42 -41 -46 -41 -3 0 -21 40 -38 90 -45 126 -157 346 -240
473 -39 59 -71 112 -71 118 0 13 169 136 271 197 230 138 531 241 794 270 112
13 343 14 450 2z m-3265 -131 c386 -47 735 -212 1012 -478 170 -162 292 -330
384 -526 103 -222 149 -411 169 -698 l6 -87 -245 0 -244 0 -6 78 c-29 361
-152 638 -386 872 -191 192 -423 314 -696 366 -116 22 -329 23 -450 1 -233
-42 -473 -157 -636 -306 -31 -28 -60 -51 -65 -51 -4 0 -78 70 -163 155 l-154
155 34 36 c50 52 163 142 254 204 212 142 491 245 756 279 95 12 333 13 430 0z
m-28 -614 c353 -61 674 -299 835 -620 75 -147 123 -337 123 -481 l0 -74 -210
0 -210 0 0 39 c0 66 -21 193 -41 256 -54 162 -191 320 -347 398 -123 61 -214
81 -351 75 -180 -9 -325 -70 -449 -191 l-52 -52 -160 160 c-88 88 -160 163
-160 167 0 5 19 25 41 45 153 138 332 228 544 273 113 23 318 26 437 5z m3244
-158 c7 -7 -983 -1007 -997 -1007 -3 0 -9 57 -12 128 -6 130 -27 291 -52 397
l-13 59 38 46 c162 193 367 317 610 371 68 15 118 18 252 16 92 -1 170 -6 174
-10z m-3281 -402 c105 -27 184 -72 260 -149 113 -114 165 -236 165 -388 l0
-78 -283 0 -282 0 -215 216 -215 215 55 49 c67 60 168 115 246 134 79 19 196
19 269 1z"/>
</g>
</svg>
